<svg id="line" height="512" viewBox="0 0 64 64" width="512" xmlns="http://www.w3.org/2000/svg"><path d="m62 36.5h-5.1a7 7 0 0 0 -6.53 4.5 10.05 10.05 0 0 1 -9.37 6.5h-2v-2a1 1 0 0 0 -1.62-.78l-10 8a1 1 0 0 0 0 1.56l10 8a1 1 0 0 0 1.62-.78v-2h2a22 22 0 0 0 22-22 1 1 0 0 0 -1-1z" fill="#c4a2fc"/><path d="m31.63 34a10 10 0 0 1 9.37-6.5h2v2a1 1 0 0 0 1.63.78l10-8a1 1 0 0 0 0-1.56l-10-8a1 1 0 0 0 -1.63.78v2h-2a22 22 0 0 0 -22 22 1 1 0 0 0 1 1h5.1a7 7 0 0 0 6.53-4.5z" fill="#c4a2fc"/><circle cx="41" cy="37.5" fill="#c4a2fc" r="4"/><g fill="#151a6a"><path d="m25 1.5a24 24 0 1 0 24 24 24 24 0 0 0 -24-24zm0 46a22 22 0 1 1 22-22 22 22 0 0 1 -22 22z"/><path d="m13 13.48a17 17 0 0 1 24 0 1 1 0 0 0 1.41-1.42 19 19 0 0 0 -26.86 0 1 1 0 0 0 1.45 1.42z"/><path d="m37 37.52a17 17 0 0 1 -24 0 1 1 0 0 0 -1.41 0 1 1 0 0 0 0 1.41 19 19 0 0 0 26.86 0 1 1 0 0 0 0-1.41 1 1 0 0 0 -1.45 0z"/><path d="m29.15 32.5a1 1 0 0 0 1-1v-12a1 1 0 0 0 -2 0v4.79h-6.3v-4.79a1 1 0 0 0 -2 0v12a1 1 0 0 0 2 0v-5.21h6.3v5.21a1 1 0 0 0 1 1z"/><path d="m17.79 22.89a4.42 4.42 0 0 0 -4.45-4.39h-3.34a1 1 0 0 0 -1 1v12a1 1 0 0 0 2 0v-4.22h2.34a4.41 4.41 0 0 0 4.45-4.39zm-6.78 0c0-.46 0-1.57 0-2.39h2.34a2.39 2.39 0 1 1 0 4.77h-2.35c0-.78 0-1.84 0-2.38z"/><path d="m36.55 18.5h-3.34a1 1 0 0 0 -1 1v12a1 1 0 1 0 2 0v-4.22h2.34a4.39 4.39 0 1 0 0-8.77zm0 6.77h-2.33c0-.79 0-1.85 0-2.39v-2.38h2.34a2.39 2.39 0 1 1 0 4.77z"/></g></svg>